Coordinates
version=1
nRows=20
nColumns=63
inDegrees=yes

Units are S.I. units (second, meters, Newtons, ...)
If the header above contains a line with 'inDegrees', this indicates whether rotational values are in degrees (yes) or radians (no).

endheader
time	pelvis_tilt	pelvis_list	pelvis_rotation	pelvis_tx	pelvis_ty	pelvis_tz	hip_flexion_r	hip_adduction_r	hip_rotation_r	knee_angle_r	knee_angle_r_beta	ankle_angle_r	subtalar_angle_r	mtp_angle_r	hip_flexion_l	hip_adduction_l	hip_rotation_l	knee_angle_l	knee_angle_l_beta	ankle_angle_l	subtalar_angle_l	mtp_angle_l	L5_S1_Flex_Ext	L5_S1_Lat_Bending	L5_S1_axial_rotation	L4_L5_Flex_Ext	L4_L5_Lat_Bending	L4_L5_axial_rotation	L3_L4_Flex_Ext	L3_L4_Lat_Bending	L3_L4_axial_rotation	L2_L3_Flex_Ext	L2_L3_Lat_Bending	L2_L3_axial_rotation	L1_L2_Flex_Ext	L1_L2_Lat_Bending	L1_L2_axial_rotation	L1_T12_Flex_Ext	L1_T12_Lat_Bending	L1_T12_axial_rotation	Abs_r3	Abs_r2	Abs_r1	Abs_t1	Abs_t2	neck_flexion	neck_bending	neck_rotation	arm_flex_r	arm_add_r	arm_rot_r	elbow_flex_r	pro_sup_r	wrist_flex_r	wrist_dev_r	arm_flex_l	arm_add_l	arm_rot_l	elbow_flex_l	pro_sup_l	wrist_flex_l	wrist_dev_l
0.000000	-2.827219	-4.032317	80.743443	0.179594	0.976945	0.459737	4.456600	0.361452	-10.464875	14.702717	0.256611	29.774807	-9.971235	0.000000	4.150986	0.139331	9.807766	10.429331	0.182026	34.952474	2.653063	0.000000	0.168176	0.304180	-0.153287	0.312321	0.404560	-0.162867	0.276297	0.739584	-0.162867	0.192209	0.739584	-0.134126	0.156169	0.620285	-0.124545	0.096096	0.471175	-0.114965	1.201268	3.440949	-0.852535	0.000000	0.000000	26.172332	-2.913157	-10.257659	13.796077	-5.333119	50.464220	37.466568	56.802001	-11.085202	9.870729	20.974810	-0.463814	63.768490	32.063499	70.831989	-2.429250	0.858832
0.020000	-2.828814	-4.230222	79.153448	0.180006	0.976232	0.460973	5.306742	0.321956	-9.795741	15.833088	0.276340	30.430767	-9.352756	0.000000	4.365784	0.004544	7.250315	10.355110	0.180731	35.873825	4.397288	0.000000	0.172700	0.337978	0.075652	0.320721	0.449510	0.080380	0.283728	0.821759	0.080380	0.197378	0.821759	0.066196	0.160369	0.689204	0.061467	0.098681	0.523527	0.056739	1.233577	3.823270	0.420755	0.000000	0.000000	26.461970	-2.969513	-9.389213	13.330792	-5.672194	48.819113	38.499064	55.999789	-11.128354	10.676273	21.438508	-0.290318	65.222534	31.955935	75.387117	-4.747170	0.392664
0.040000	-2.799574	-4.370910	77.923563	0.180256	0.975642	0.462012	5.963766	0.317167	-9.244494	16.719147	0.291804	31.011733	-8.845611	0.000000	4.517904	-0.127677	5.194974	10.297961	0.179733	36.639104	5.830999	0.000000	0.173289	0.367873	0.250596	0.321815	0.489272	0.266258	0.284697	0.894447	0.266258	0.198052	0.894447	0.219271	0.160916	0.750167	0.203609	0.099017	0.569836	0.187947	1.237787	4.161457	1.393737	0.000000	0.000000	26.575143	-3.053264	-8.727836	12.995231	-5.968082	47.615591	39.349272	55.450695	-11.216623	11.341171	21.810057	-0.151024	66.337088	31.901127	78.905644	-6.625531	0.059815
0.060000	-2.743818	-4.459303	77.024436	0.180360	0.975166	0.462871	6.443945	0.342543	-8.805952	17.382667	0.303385	31.519802	-8.442516	0.000000	4.613462	-0.256484	3.598490	10.256798	0.179015	37.260016	6.984810	0.000000	0.170557	0.393940	0.375892	0.316742	0.523941	0.399385	0.280209	0.957826	0.399385	0.194930	0.957826	0.328905	0.158380	0.803323	0.305412	0.097457	0.610214	0.281919	1.218275	4.456331	2.090598	0.000000	0.000000	26.528055	-3.158258	-8.254104	12.776997	-6.224781	46.816700	40.031512	55.108734	-11.333795	11.881901	22.097391	-0.044542	67.145709	31.893285	81.490094	-8.091407	-0.157355
0.080000	-2.665867	-4.500322	76.426718	0.180334	0.974797	0.463567	6.763549	0.393543	-8.474931	17.845419	0.311461	31.957071	-8.136186	0.000000	4.658576	-0.381033	2.417605	10.230534	0.178556	37.748263	7.889331	0.000000	0.165117	0.416251	0.455889	0.306639	0.553613	0.484382	0.271271	1.012072	0.484382	0.188713	1.012072	0.398903	0.153328	0.848818	0.370410	0.094348	0.644772	0.341917	1.179417	4.708711	2.535520	0.000000	0.000000	26.336908	-3.278340	-7.948596	12.663693	-6.446289	46.385486	40.560103	54.927921	-11.463657	12.314942	22.308445	0.030514	67.681955	31.926619	83.242994	-9.171873	-0.276486
0.100000	-2.570040	-4.498889	76.101057	0.180195	0.974527	0.464118	6.938848	0.465625	-8.246249	18.129175	0.316414	32.325636	-7.919336	0.000000	4.659361	-0.500477	1.609065	10.218082	0.178339	38.115550	8.575178	0.000000	0.157582	0.434877	0.494936	0.292645	0.578386	0.525870	0.258891	1.057360	0.525870	0.180100	1.057360	0.433069	0.146330	0.886801	0.402136	0.090042	0.673624	0.371202	1.125589	4.919414	2.752687	0.000000	0.000000	26.017909	-3.407357	-7.791887	12.642922	-6.636605	46.284993	40.949365	54.862270	-11.589995	12.656773	22.451152	0.075533	67.979387	31.995338	84.266870	-9.894001	-0.315216
0.120000	-2.460656	-4.459923	76.018105	0.179959	0.974348	0.464541	6.986114	0.554248	-8.114723	18.255710	0.318622	32.627593	-7.784681	0.000000	4.621934	-0.613970	1.129614	10.218358	0.178344	38.373581	9.072961	0.000000	0.148563	0.449891	0.497381	0.275896	0.598355	0.528467	0.244073	1.093866	0.528467	0.169792	1.093866	0.435208	0.137955	0.917418	0.404122	0.084889	0.696882	0.373036	1.061167	5.089261	2.766284	0.000000	0.000000	25.587260	-3.539154	-7.764554	12.702286	-6.799727	46.478268	41.213618	54.865798	-11.696598	12.923873	22.533446	0.091903	68.071561	32.093654	84.664248	-10.284868	-0.291185
0.140000	-2.342036	-4.388347	76.148509	0.179641	0.974252	0.464853	6.921618	0.654871	-8.075170	18.246794	0.318467	32.865039	-7.724935	0.000000	4.552411	-0.720665	0.935997	10.230274	0.178552	38.534061	9.413295	0.000000	0.138673	0.461366	0.467572	0.257530	0.613617	0.496795	0.227826	1.121766	0.496795	0.158490	1.121766	0.409125	0.128772	0.940818	0.379902	0.079238	0.714657	0.350679	0.990529	5.219069	2.600494	0.000000	0.000000	25.061167	-3.667577	-7.847174	12.829389	-6.939653	46.928355	41.367181	54.892518	-11.767251	13.132719	22.563261	0.081012	67.992037	32.215774	84.537655	-10.371547	-0.222033
0.160000	-2.218497	-4.289080	76.462922	0.179259	0.974233	0.465072	6.761630	0.762952	-8.122406	18.124200	0.316327	33.040071	-7.732815	0.000000	4.456911	-0.819717	0.984958	10.252745	0.178944	38.608692	9.626790	0.000000	0.128526	0.469375	0.409857	0.238686	0.624268	0.435473	0.211156	1.141237	0.435473	0.146892	1.141237	0.358625	0.119349	0.957149	0.333009	0.073440	0.727061	0.307393	0.918049	5.309659	2.279502	0.000000	0.000000	24.455833	-3.786473	-8.020324	13.011834	-7.060383	47.598302	41.424375	54.896446	-11.785742	13.299791	22.548530	0.044247	67.774373	32.355910	83.989616	-10.181111	-0.125399
0.180000	-2.094361	-4.167044	76.931991	0.178827	0.974282	0.465215	6.522422	0.873951	-8.251249	17.909702	0.312583	33.154784	-7.801034	0.000000	4.341548	-0.910279	1.233241	10.284684	0.179502	38.609179	9.744061	0.000000	0.118734	0.473988	0.328585	0.220501	0.630404	0.349121	0.195068	1.152455	0.349121	0.135701	1.152455	0.287512	0.110256	0.966557	0.266975	0.067845	0.734208	0.246439	0.848105	5.361848	1.827491	0.000000	0.000000	23.787463	-3.889688	-8.264581	13.237224	-7.165913	48.451153	41.399519	54.831597	-11.735857	13.441568	22.497188	-0.017003	67.452127	32.508271	83.122658	-9.740636	-0.018922
0.200000	-1.973946	-4.027160	77.526366	0.178362	0.974392	0.465298	6.220263	0.983325	-8.456515	17.625070	0.307616	33.211276	-7.922309	0.000000	4.212440	-0.991505	1.637591	10.325004	0.180205	38.547227	9.795719	0.000000	0.109909	0.475280	0.228104	0.204113	0.632122	0.242360	0.180570	1.155595	0.242360	0.125615	1.155595	0.199591	0.102062	0.969190	0.185334	0.062802	0.736208	0.171078	0.785072	5.376457	1.268645	0.000000	0.000000	23.072260	-3.971068	-8.560521	13.493162	-7.260244	49.449954	41.306932	54.651985	-11.601384	13.574527	22.417168	-0.101350	67.058859	32.667067	82.039307	-9.077196	0.079757
0.220000	-1.866880	-3.856479	78.206121	0.177931	0.974584	0.465358	5.855977	1.067518	-8.893179	17.321739	0.302321	33.220918	-7.967418	0.000000	4.058823	-1.063150	2.129097	10.389260	0.181327	38.405375	9.821074	0.000000	0.102673	0.472511	0.109751	0.190674	0.628439	0.116611	0.168681	1.148863	0.116611	0.117345	1.148863	0.096033	0.095342	0.963544	0.089173	0.058667	0.731919	0.082314	0.733382	5.345138	0.610405	0.000000	0.000000	22.274810	-4.020723	-8.829585	13.842767	-7.348748	50.818154	41.111924	53.989108	-11.282201	13.878542	22.400289	-0.223381	67.000640	32.771586	81.340200	-8.371759	0.054153
0.240000	-1.771203	-3.686403	78.953318	0.177499	0.974807	0.465323	5.467869	1.151758	-9.336501	17.000967	0.296723	33.122702	-8.170226	0.000000	3.904637	-1.125386	2.706074	10.435970	0.182142	38.243996	9.882978	0.000000	0.099339	0.466296	-0.016226	0.184483	0.620173	-0.017240	0.163204	1.133751	-0.017240	0.113535	1.133751	-0.014198	0.092246	0.950870	-0.013184	0.056762	0.722292	-0.012170	0.709569	5.274830	-0.090246	0.000000	0.000000	21.495065	-3.997792	-9.107200	14.095552	-7.432132	51.935669	40.955869	53.287393	-10.824192	14.312761	22.255492	-0.348856	66.467806	32.910036	81.330812	-7.291314	0.081205
0.260000	-1.693156	-3.523584	79.735988	0.177089	0.975065	0.465281	5.077111	1.230896	-9.790661	16.677536	0.291078	32.933854	-8.481970	0.000000	3.764557	-1.184517	3.231520	10.473425	0.182796	38.079190	10.100677	0.000000	0.100751	0.456363	-0.146621	0.187106	0.606963	-0.155784	0.165525	1.109601	-0.155784	0.115149	1.109601	-0.128293	0.093558	0.930615	-0.119129	0.057569	0.706906	-0.109965	0.719658	5.162469	-0.815460	0.000000	0.000000	20.747651	-3.893507	-9.371913	14.310291	-7.508205	52.976076	40.803710	52.168903	-10.218020	14.768129	22.087248	-0.495461	65.965016	33.054023	80.952189	-5.945379	0.094140
0.280000	-1.643488	-3.371231	80.531095	0.176670	0.975336	0.465291	4.704676	1.282734	-10.284916	16.379012	0.285868	32.707960	-8.819527	0.000000	3.648408	-1.215445	3.812899	10.511841	0.183466	37.904170	10.290340	0.000000	0.106807	0.442857	-0.279116	0.198351	0.589000	-0.296561	0.175473	1.076763	-0.296561	0.122069	1.076763	-0.244227	0.099181	0.903075	-0.226782	0.061029	0.685986	-0.209337	0.762909	5.009691	-1.552361	0.000000	0.000000	20.064788	-3.730173	-9.599803	14.503331	-7.604921	54.043398	40.721251	50.094069	-9.598162	15.257286	21.929068	-0.653468	65.607283	33.174309	79.997429	-4.410197	-0.011996
0.300000	-1.627091	-3.245128	81.337055	0.176237	0.975590	0.465409	4.375663	1.305448	-10.797754	16.109623	0.281166	32.464494	-9.202472	0.000000	3.594361	-1.226645	4.313019	10.584978	0.184743	37.760193	10.611202	0.000000	0.118124	0.425482	-0.416603	0.219369	0.565891	-0.442641	0.194067	1.034517	-0.442641	0.135004	1.034517	-0.364528	0.109690	0.867643	-0.338490	0.067496	0.659072	-0.312453	0.843751	4.813139	-2.317023	0.000000	0.000000	19.479478	-3.525010	-9.834726	14.631991	-7.667725	54.903014	40.629452	47.740096	-8.714192	15.745549	21.761422	-0.820782	65.255394	33.264044	78.717995	-2.743205	-0.288391
0.320000	-1.653962	-3.140232	82.037795	0.175869	0.975824	0.465711	4.121483	1.281049	-11.266498	15.916650	0.277798	32.249439	-9.545195	0.000000	3.577451	-1.205958	4.665947	10.660670	0.186064	37.630957	10.984582	0.000000	0.132242	0.404479	-0.539759	0.245586	0.537958	-0.573494	0.217260	0.983451	-0.573494	0.151139	0.983451	-0.472289	0.122800	0.824814	-0.438554	0.075563	0.626539	-0.404819	0.944589	4.575552	-3.001978	0.000000	0.000000	18.987536	-3.286833	-10.072700	14.817777	-7.757695	56.111927	40.506245	44.542145	-7.673553	16.034611	21.696678	-0.996895	65.355588	33.268650	76.785376	-1.234457	-0.863340
0.340000	-1.714238	-3.064325	82.668275	0.175503	0.976042	0.466177	3.939090	1.216692	-11.719734	15.778881	0.275393	32.069012	-9.830265	0.000000	3.618773	-1.160127	4.913646	10.761096	0.187817	37.514028	11.391494	0.000000	0.148723	0.381901	-0.655727	0.276194	0.507929	-0.696710	0.244337	0.928555	-0.696710	0.169976	0.928555	-0.573761	0.138104	0.778773	-0.532778	0.084980	0.591565	-0.491795	1.062314	4.320144	-3.646955	0.000000	0.000000	18.564528	-3.039963	-10.294092	14.983984	-7.843988	57.255077	40.333950	41.765478	-6.393033	16.104426	21.712270	-1.163469	65.714496	33.142117	74.745369	0.094638	-1.721311
0.360000	-1.810858	-3.010489	83.177153	0.175195	0.976260	0.466786	3.828945	1.118506	-12.056662	15.695334	0.273935	31.917483	-10.107953	0.000000	3.698745	-1.086694	5.009671	10.868573	0.189692	37.409590	11.840301	0.000000	0.166290	0.358009	-0.754398	0.308818	0.476153	-0.801548	0.273199	0.870464	-0.801548	0.190053	0.870464	-0.660099	0.154417	0.730053	-0.612949	0.095018	0.554557	-0.565799	1.187796	4.049875	-4.195738	0.000000	0.000000	18.157428	-2.809318	-10.497725	15.118217	-7.936223	58.239700	40.112759	39.888889	-4.979704	15.887798	21.790378	-1.320013	66.232168	32.895302	72.996275	1.059433	-2.769402
0.380000	-1.938898	-2.982514	83.522037	0.174972	0.976485	0.467503	3.799391	0.990697	-12.250516	15.668523	0.273467	31.804927	-10.330959	0.000000	3.813450	-0.988883	4.955428	10.976896	0.191583	37.311268	12.287120	0.000000	0.184892	0.334590	-0.825624	0.343362	0.445005	-0.877226	0.303759	0.813522	-0.877226	0.211313	0.813522	-0.722421	0.171690	0.682296	-0.670820	0.105647	0.518280	-0.619218	1.320663	3.784951	-4.591876	0.000000	0.000000	17.745993	-2.594047	-10.629676	15.189180	-8.054590	58.910617	39.859517	39.104992	-3.535992	15.391898	21.908275	-1.463494	66.760920	32.556904	71.722814	1.705414	-3.877869
